<?xml version="1.0" encoding="UTF-8"?>
<svg width="421px" height="137px" viewBox="0 0 421 137" version="1.1" xmlns="http://www.w3.org/2000/svg" xmlns:xlink="http://www.w3.org/1999/xlink">
    <!-- Generator: Sketch 49 (51002) - http://www.bohemiancoding.com/sketch -->
    <title>logo_neg</title>
    <desc>Created with Sketch.</desc>
    <defs></defs>
    <g id="Ferdige-elementer" stroke="none" stroke-width="1" fill="none" fill-rule="evenodd">
        <g id="Logo" transform="translate(-303.000000, -130.000000)" fill="#FFFFFF">
            <g id="logo_neg_bg" transform="translate(188.000000, 53.000000)">
                <path d="M159,197 C159,187.565684 166.394876,180 176.239304,180 C185.991296,180 193.478607,187.428954 193.478607,197 C193.478607,206.571046 186.12995,214 176.239304,214 C166.394876,214 159,206.571046 159,197 Z M164.823465,197 C164.823465,203.654155 169.630134,208.713137 176.239304,208.713137 C182.848474,208.713137 187.608925,203.654155 187.608925,197 C187.608925,190.391421 182.848474,185.286863 176.239304,185.286863 C169.630134,185.286863 164.823465,190.391421 164.823465,197 Z M241.776388,213.908847 L241.637734,213.908847 L222.179968,194.265416 C221.67157,193.809651 221.116955,193.262735 220.562339,192.806971 L220.562339,213.407507 L214.831311,213.407507 L214.831311,180.091153 L215.016182,180.091153 L234.427731,199.689008 L236.04536,201.238606 L236.04536,180.592493 L241.776388,180.592493 L241.776388,213.908847 Z M273.250828,214 C269.414736,214 265.809734,213.088472 263.498835,212.131367 L263.498835,206.525469 C265.855952,207.710456 269.044992,208.80429 272.372686,208.895442 C273.574353,208.895442 274.729803,208.80429 275.70038,208.530831 C278.057497,207.983914 279.490254,206.798928 279.490254,205.021448 C279.490254,202.423592 277.595317,201.010724 272.51134,199.233244 C266.410568,197.091153 263.17531,194.538874 263.17531,189.206434 C263.17531,183.463807 268.028197,180 274.776021,180 C278.103715,180 281.292755,180.820375 283.280127,181.640751 L283.280127,187.018767 C281.385191,185.970509 278.196151,185.058981 275.191982,185.058981 C271.402109,185.058981 268.86012,186.608579 268.86012,189.115282 C268.86012,191.439678 270.616403,192.989276 275.70038,194.812332 C281.801152,197.045576 285.128846,199.597855 285.128846,204.793566 C285.128846,210.536193 280.691921,214 273.250828,214 Z M332.45605,180.592493 L332.45605,201.69437 C332.45605,209.260054 327.464509,214 319.052838,214 C310.687385,214 305.695844,209.260054 305.695844,201.69437 L305.695844,180.592493 L311.473091,180.592493 L311.473091,201.193029 C311.473091,205.932976 314.292387,208.713137 319.052838,208.713137 C323.859507,208.713137 326.632586,205.932976 326.632586,201.193029 L326.632586,180.592493 L332.45605,180.592493 Z M374.930367,213.407507 L355.565036,213.407507 L355.565036,180.592493 L361.388501,180.592493 L361.388501,208.576408 L374.930367,208.576408 L374.930367,213.407507 Z M413.429937,185.423592 L403.724163,185.423592 L403.724163,213.407507 L397.900699,213.407507 L397.900699,185.423592 L388.194925,185.423592 L388.194925,180.592493 L413.429937,180.592493 L413.429937,185.423592 Z M439.404438,213.407507 L433.580973,213.407507 L433.580973,180.592493 L439.404438,180.592493 L439.404438,213.407507 Z M504.294471,213.407507 L520.0548,180.091153 L520.239671,180.091153 L536,213.407507 L529.899228,213.407507 L526.941277,206.89008 L513.353194,206.89008 L510.395243,213.407507 L504.294471,213.407507 Z M308.446115,109.5 L332,142 L317.997494,142 L295,109.5 L317.997494,77 L332,77 L308.446115,109.5 Z M373,109.5 L351.245614,142 L338,142 L360.280702,109.5 L338,77 L351.245614,77 L373,109.5 Z M480.983051,197.5 L469.213559,214 L462.047458,214 L474.101695,197.5 L462.047458,181 L469.213559,181 L480.983051,197.5 Z M130.898305,197.5 L142.952542,214 L135.786441,214 L124.016949,197.5 L135.786441,181 L142.952542,181 L130.898305,197.5 Z M515.24813,202.605898 C517.050631,198.595174 518.760696,194.402145 520.193453,190.983914 C521.579993,194.72118 523.151404,198.412869 525.046341,202.605898 L515.24813,202.605898 Z M120.979661,181 L120.979661,214 L115,214 L115,181 L120.979661,181 Z M484.020339,181 L490,181 L490,214 L484.020339,214 L484.020339,181 Z M289,77 L289,142 L277,142 L277,77 L289,77 Z" id="logo_neg"></path>
            </g>
        </g>
    </g>
</svg>